<?xml version="1.0"?>
<svg xmlns:rdf="http://www.w3.org/1999/02/22-rdf-syntax-ns#" xmlns="http://www.w3.org/2000/svg" xmlns:cc="http://creativecommons.org/ns#" xmlns:dc="http://purl.org/dc/elements/1.1/" id="svg2" viewBox="0 0 300.1 390.66" version="1.1">
 <g id="g3855" transform="translate(-369.59 -18.219)">
  <g id="g3847">
   <path id="path2987" stroke="#000" stroke-width=".99595px" d="m399.87 408.24c1.5298-14.462 3.6379-30.893 5.4892-41.994-10.128-3.3197-16.04-13.891-23.964-21.002 14.62-58.961 15.816-74.025 33.576-99.858l-1.9648-2.9218c-43.352-5.9455-40.058-22.593-42.803-26.005-0.79256-9.1973 2.3028-13.431 5.2668-17.832 10.837-33.858 28.349-63.257 47.007-91.536 4.3995-4.8005 27.534-6.2708 45.163-8.3215 5.0633-2.4304 8.7966-5.6613 12.116-9.1415l3.5531 0.15964 3.2918-4.623c1.5801-0.56773 3.1601-0.79714 4.7402-0.66043 1.0876-5.1664 0.81205-6.2304 0.92169-8.4536-4.6736-7.4583-3.2085-15.48 0.52669-22.587 4.3086-21.601 9.1348-32.588 41.345-34.739 12.188 0.79562 28.346 13.934 27.124 32.097-1.5533 5.657-2.2198 11.187-6.0569 17.171l-5.7935 12.548c0.27882 2.0589 0.33505 3.0014 0.26335 3.3022l-3.8184 3.6984c-0.55625 8.9066-1.3133 8.1259-5.271 11.459-6.7913 5.6516-11.942 10.409-16.455 17.203l-0.79003 0.39625v0.52834c12.261 8.65 22.76 18.007 33.313 27.342l-3.9501 55.741 13.849-21.6c0.62081-3.9941 2.5879-4.8369 4.1898-6.5347 0.76545-2.7362 0.0613-4.9811-0.13168-7.3968 5.399-4.008 10.311-6.5514 15.01-8.4536l0.0801-2.8906c-5.0787-8.2158-8.8278-16.275-7.9804-23.791 0.27739-2.8332 1.5775-8.5673-0.9217-11.888l-0.26333-2.1134c-2.814-19.161 2.6185-34.871 32.259-41.079 37.679 4.0049 36.046 18.404 36.868 33.022 1.5743 2.8676 3.2348 5.6488 4.4768 8.8498l0.65834 6.7364-2.1067-6.7364-0.52671 6.2081c2.6418 10.423 2.5188 20.483-2.8968 29.852l-1.8434 1.7171 0.39502 5.4156c6.1661 2.6692 8.1885 2.7296 10.393 5.1637 3.9192 4.3277 10.288 6.2812 14.098 15.046 2.9982 9.3001-2.8633 25.162 0.26335 32.89-4.6086 19.914-0.33256 18.633-1.185 30.644-1.9616 6.8727-2.9114 7.9348-2.2384 13.869-2.0373 13.565 2.0349 11.569 2.4774 22.076 0.20971 1.9232 0.0285 3.1523-0.90779 4.6471-6.3406 10.053-8.1527 10.452-10.4 11.779-1.0961 0.96494-1.9393 0.93435-3.2457 0.78691-13.856-1.551-17.504-1.4502-22.158-1.5122l5.0035 35.003-3.8184 20.473-2.2384 31.04-7.1102 26.946-94.575 0.0364c-0.19245-11.17 6.8223-56.45 9.9782-82.757 0.17804-1.4841-3.1901-0.85148-3.0483-2.204 0.7768-7.4051 2.8314-4.5282 3.8318-15.117 0.15539-1.6447-5.1072 1.9193-5.3384 1.7673-1.5108-0.99373-1.9728-3.9942-2.2429-6.7077-0.0926-0.92997-2.198-0.70708-2.0837-0.007 1.4076 8.6163 1.1825 41.695-1.5422 66.751-0.12144 2.6863-3.0873 2.5868-3.1661 5.2112-0.47199 15.723-2.6177 21.31-4.3131 33.104z"/>
   <path id="path3055" stroke="#000" stroke-width="1px" fill="#fff" d="m486.98 85.586c-0.81425 2.922-0.65209 5.2861 0.28089 7.2096 6.3307 8.2666 12.676 16.527 17.79 25.281 3.0196 0.84464 4.3869 0.45003 5.4306-0.18727l2.809-1.5917c3.4607-0.14216 4.953-0.003 6.7415 0.0936l-0.0936 5.2434-0.74906 50.187-5.337 54.306 7.7742 51.343c-7.7984 4.9174-16.724 4.1988-25.086 6.2982l-7.7596 1.2372c-3.9116 0.86811-8.3575-0.40609-11.779-1.0078-0.0656-1.5741 10.451-33.486 10.389-35.061-2.4066-61.063-2.2821-122.84-6.6841-158.86l2.6217 0.09363 3.2771-4.6816z"/>
   <path id="path3057" stroke="#000" stroke-width="1px" fill="#f00" d="m492.88 127.72c2.5015-1.5075 5.2387-3.4863 8.2396-5.9924 1.5249 1.4842 3.5376 1.8035 8.0523 0.18727l3.7453 2.809c-3.0956 1.3433-5.1782 5.2191-7.3033 8.9886 0.42556 1.6074 0.48276 5.1073 1.7264 8.532 1.3666 3.7632 1.6364 8.9652 2.7679 14.127l2.6217 68.913 2.8165 63.923-8.6061 16.024-11.156-14.979-2.1555-68.713 0.74905-75.467c0.96477-8.9506 2.8236-15.939-1.4981-18.352z"/>
   <path id="path3063" stroke="#000" stroke-width="1px" fill="#fff" d="m565.16 256.93c13.004-39.715 9.6851-37.451 52.808-98.875-1.6275-0.21539-2.6846-0.14559-5.615-1.0124l-12.362 10.844-3.3707 10.955c-1.8884-0.37389-2.7047 0.40832-3.6034 0.69421l-0.0555 3.0294c0.17528 0.39599-0.0219 0.75266-0.0995 1.0563l-7.2901 10.388 2.6217-10.861 0.53517-21.554c-0.19374-0.37069-1.363-2.1071-3.3218-4.9489-5.6405 1.4573-10.068 4.9359-14.698 8.0773 0.091 9.775 0.14231 8.9523 0.92691 11.785 2.4718-2.1774 4.5462-3.3051 7.018-4.1049 1.8348 1.8538 2.8876 3.7076 3.3104 5.5614-16.572 10.03-15.068 18.931-32.442 37.341 6.4696 26.287 10.58 23.371 15.638 41.625z"/>
   <path id="path3071" stroke="#fff" stroke-width="1px" fill="none" d="m577.07 119.44-0.79449 6.6208c4.3972 4.5115 9.6408 7.0482 16.155 6.6208l2.1186-4.767 3.4428 0.66209c0.34366 3.334 0.66357 6.595 2.3835 6.4883 6.6774 2.7133 14.201 4.3126 17.479-1.4566l-0.0502-1.2085 3.1634-0.0979 1.389-0.67978-4.767-0.26483-1.3242-1.0593-18.273-2.5159c-1.0088-0.28803-2.4341-0.34972-3.4769-0.70576-5.6635-1.9336-11.63-5.3999-17.445-7.6364z"/>
   <path id="path3845" stroke="#000" stroke-width="1px" fill="#fff" d="m493.63 262.18 13.857-7.6778 93.632 10.487-21.535 9.3632-9.1775-1.2996c-5.1882-2.5441-15.482 0.39344-18.075-3.0871-6.0896-8.1715-14.216-8.0105-18.734-6.4898-3.8077 1.2815 0.4545 6.0367-6.3263 3.4685z"/>
  </g>
  <path id="path3841" stroke="#000" stroke-width="1px" d="m488.1 221.35c9.041 2.216 1.9345 1.9975 24.719 5.2434 4.6192 4.2618 8.3956 9.0968 13.015 13.858 3.0907 11.896 3.1708 6.87 7.116 18.071-2.0048-0.0189-3.7881-0.64016-6.7415-0.74906-1.0027-3.1994-2.882-6.8651-4.8688-11.236-2.3018-0.90789-4.9162-3.3794-7.4517-5.4558-0.81339-0.67332-0.79631-0.76513-0.72995 0.29654 1.2398 1.3307 0.47729 7.3334 0.69112 11.058-2.0134 1.2053-2.648 1.66-8.2794 1.5333-0.17132-0.004-0.008-1.2853-0.18985-1.2907-0.15065-0.004-0.65714 1.3014-0.81497 1.2966-1.6114-0.0512-3.1502-0.11485-5.6424-0.25082-0.16569-0.009-0.0959-1.0114-0.37833-1.0209-0.30078-0.0101-0.40611 1.0155-0.5928 1.005-1.7568-0.0992-2.9592-0.19609-5.2271-0.33774-1.0884 0.0367-1.6558-0.1415-1.8617-1.1866l-1.5896-4.2608c-0.31333-1.2743-0.59231-1.41-1.758-1.7799l-8.4969-2.6961c1.4098-8.2167 0.11947-16.631 9.0823-22.097z"/>
 </g>
 <metadata>
  <rdf:RDF>
   <cc:Work>
    <dc:format>image/svg+xml</dc:format>
    <dc:type rdf:resource="http://purl.org/dc/dcmitype/StillImage"/>
    <cc:license rdf:resource="http://creativecommons.org/licenses/publicdomain/"/>
    <dc:publisher>
     <cc:Agent rdf:about="http://openclipart.org/">
      <dc:title>Openclipart</dc:title>
     </cc:Agent>
    </dc:publisher>
   </cc:Work>
   <cc:License rdf:about="http://creativecommons.org/licenses/publicdomain/">
    <cc:permits rdf:resource="http://creativecommons.org/ns#Reproduction"/>
    <cc:permits rdf:resource="http://creativecommons.org/ns#Distribution"/>
    <cc:permits rdf:resource="http://creativecommons.org/ns#DerivativeWorks"/>
   </cc:License>
  </rdf:RDF>
 </metadata>
</svg>
