<?xml version="1.0" encoding="utf-8"?><svg xmlns="http://www.w3.org/2000/svg" xmlns:xlink="http://www.w3.org/1999/xlink" width="1600" height="781" preserveAspectRatio="xMidYMid" viewBox="0 0 1600 781" style="z-index:1;margin-right:-2px;display:block;background-repeat-y:initial;background-repeat-x:initial;background-color:rgb(255, 255, 255);animation-play-state:paused" ><g transform="" style="animation-play-state:paused" ><linearGradient id="lg-0.6590519274487807" x1="0" x2="1" y1="0" y2="0" style="animation-play-state:paused" ><stop stop-color="#f09522" offset="0" style="animation-play-state:paused" ></stop>

  
<stop stop-color="#95251b" offset="1" style="animation-play-state:paused" ></stop></linearGradient>
<path fill="url(#lg-0.6590519274487807)" opacity="0.4" d="M 0 0 L 0 638.335 Q 160 714.309 320 672.299 T 640 491.473 T 960 501.498 T 1280 453.279 T 1600 259.825 L 1600 0 Z" style="opacity:0.4;animation-play-state:paused" ></path>
<path fill="url(#lg-0.6590519274487807)" opacity="0.4" d="M 0 0 L 0 659.044 Q 160 659.741 320 635.917 T 640 604.992 T 960 537.893 T 1280 391.45 T 1600 352.673 L 1600 0 Z" style="opacity:0.4;animation-play-state:paused" ></path>
<path fill="url(#lg-0.6590519274487807)" opacity="0.4" d="M 0 0 L 0 741.328 Q 160 688.434 320 659.197 T 640 542.629 T 960 558.651 T 1280 402.49 T 1600 331.003 L 1600 0 Z" style="opacity:0.4;animation-play-state:paused" ></path>
<path fill="url(#lg-0.6590519274487807)" opacity="0.4" d="M 0 0 L 0 688.566 Q 160 651.525 320 614.876 T 640 529.31 T 960 539.522 T 1280 407.154 T 1600 373.207 L 1600 0 Z" style="opacity:0.4;animation-play-state:paused" ></path>
<path fill="url(#lg-0.6590519274487807)" opacity="0.4" d="M 0 0 L 0 739.59 Q 160 691.997 320 654.396 T 640 519.636 T 960 470.511 T 1280 439.281 T 1600 387.93 L 1600 0 Z" style="opacity:0.4;animation-play-state:paused" ></path></g></svg>