<?xml version="1.0" encoding="utf-8"?><svg xmlns="http://www.w3.org/2000/svg" xmlns:xlink="http://www.w3.org/1999/xlink" width="76" height="76" preserveAspectRatio="xMidYMid" viewBox="0 0 76 76" style="display:block;background-repeat-y:initial;background-repeat-x:initial;background-color:rgb(240, 149, 34);animation-play-state:paused" ><g transform="scale(0.3)" style="transform:matrix(0.3, 0, 0, 0.3, 0, 0);animation-play-state:paused" ><g data-idx="0" data-dup="" dx="-128" dy="-128" style="transform-origin:-47.6574px -6.29717px;transform:matrix(0.91, 0, 0, 0.91, 0, 0);animation-timing-function:linear;animation-play-state:paused;animation-name:breath-a66d0abb-0845-4dc3-95d2-d841a6a81d7d;animation-iteration-count:infinite;animation-fill-mode:forwards;animation-duration:0.60241s" ><g transform="translate(-128,-128)" style="transform:matrix(1, 0, 0, 1, -128, -128);animation-play-state:paused" ><ellipse transform="matrix(0.6207 -0.784 0.784 0.6207 -64.9453 109.154)" fill="none" stroke="#E15C64" stroke-width="3" stroke-miterlimit="10" cx="80.348" cy="121.704" rx="27.553" ry="27.553" data-stroke="c1" style="transform:matrix(0.6207, -0.784, 0.784, 0.6207, -64.9453, 109.154);stroke:rgb(149, 37, 27);animation-play-state:paused" ></ellipse></g></g>
<g data-idx="0" data-dup="" dx="128" dy="-128" style="transform-origin:208.343px -6.29717px;transform:matrix(0.91, 0, 0, 0.91, 0, 0);animation-timing-function:linear;animation-play-state:paused;animation-name:breath-a66d0abb-0845-4dc3-95d2-d841a6a81d7d;animation-iteration-count:infinite;animation-fill-mode:forwards;animation-duration:0.60241s" ><g transform="translate(128,-128)" style="transform:matrix(1, 0, 0, 1, 128, -128);animation-play-state:paused" ><ellipse transform="matrix(0.6207 -0.784 0.784 0.6207 -64.9453 109.154)" fill="none" stroke="#E15C64" stroke-width="3" stroke-miterlimit="10" cx="80.348" cy="121.704" rx="27.553" ry="27.553" data-stroke="c1" style="transform:matrix(0.6207, -0.784, 0.784, 0.6207, -64.9453, 109.154);stroke:rgb(149, 37, 27);animation-play-state:paused" ></ellipse></g></g>
<g data-idx="1" data-dup="" dx="-128" dy="-128" style="transform-origin:-42.179px 64px;transform:matrix(0.91, 0, 0, 0.91, 0, 0);animation-timing-function:linear;animation-play-state:paused;animation-name:breath-a66d0abb-0845-4dc3-95d2-d841a6a81d7d;animation-iteration-count:infinite;animation-fill-mode:forwards;animation-duration:0.60241s" ><g transform="translate(-128,-128)" style="transform:matrix(1, 0, 0, 1, -128, -128);animation-play-state:paused" ><path fill="none" stroke="#E15C64" stroke-width="3" stroke-miterlimit="10" d="M97.65,198.191
	c0.626,5.602-4.163,7.371-10.696,3.952c-6.533-3.419-12.336-10.732-12.962-16.334c-0.626-5.602,4.163-7.371,10.696-3.952
	C91.221,185.276,97.024,192.589,97.65,198.191z" data-stroke="c1" style="stroke:rgb(149, 37, 27);animation-play-state:paused" ></path></g></g>
<g data-idx="1" data-dup="" dx="128" dy="-128" style="transform-origin:213.821px 64px;transform:matrix(0.91, 0, 0, 0.91, 0, 0);animation-timing-function:linear;animation-play-state:paused;animation-name:breath-a66d0abb-0845-4dc3-95d2-d841a6a81d7d;animation-iteration-count:infinite;animation-fill-mode:forwards;animation-duration:0.60241s" ><g transform="translate(128,-128)" style="transform:matrix(1, 0, 0, 1, 128, -128);animation-play-state:paused" ><path fill="none" stroke="#E15C64" stroke-width="3" stroke-miterlimit="10" d="M97.65,198.191
	c0.626,5.602-4.163,7.371-10.696,3.952c-6.533-3.419-12.336-10.732-12.962-16.334c-0.626-5.602,4.163-7.371,10.696-3.952
	C91.221,185.276,97.024,192.589,97.65,198.191z" data-stroke="c1" style="stroke:rgb(149, 37, 27);animation-play-state:paused" ></path></g></g>
<g data-idx="2" data-dup="" dx="-128" dy="-128" style="transform-origin:-15.7705px -101.903px;transform:matrix(0.91, 0, 0, 0.91, 0, 0);animation-timing-function:linear;animation-play-state:paused;animation-name:breath-a66d0abb-0845-4dc3-95d2-d841a6a81d7d;animation-iteration-count:infinite;animation-fill-mode:forwards;animation-duration:0.60241s" ><g transform="translate(-128,-128)" style="transform:matrix(1, 0, 0, 1, -128, -128);animation-play-state:paused" ><path fill="none" stroke="#E15C64" stroke-width="3" stroke-miterlimit="10" d="M106.344,40.752
	c-7.68,2.008-11.27-2.927-8.02-11.021s12.111-16.283,19.791-18.29s11.27,2.927,8.02,11.021S114.024,38.745,106.344,40.752z" data-stroke="c1" style="stroke:rgb(149, 37, 27);animation-play-state:paused" ></path></g></g>
<g data-idx="2" data-dup="" dx="128" dy="-128" style="transform-origin:240.23px -101.903px;transform:matrix(0.91, 0, 0, 0.91, 0, 0);animation-timing-function:linear;animation-play-state:paused;animation-name:breath-a66d0abb-0845-4dc3-95d2-d841a6a81d7d;animation-iteration-count:infinite;animation-fill-mode:forwards;animation-duration:0.60241s" ><g transform="translate(128,-128)" style="transform:matrix(1, 0, 0, 1, 128, -128);animation-play-state:paused" ><path fill="none" stroke="#E15C64" stroke-width="3" stroke-miterlimit="10" d="M106.344,40.752
	c-7.68,2.008-11.27-2.927-8.02-11.021s12.111-16.283,19.791-18.29s11.27,2.927,8.02,11.021S114.024,38.745,106.344,40.752z" data-stroke="c1" style="stroke:rgb(149, 37, 27);animation-play-state:paused" ></path></g></g>
<g data-idx="3" data-dup="" dx="-128" dy="-128" style="transform-origin:97.539px 39.405px;transform:matrix(0.91, 0, 0, 0.91, 0, 0);animation-timing-function:linear;animation-play-state:paused;animation-name:breath-a66d0abb-0845-4dc3-95d2-d841a6a81d7d;animation-iteration-count:infinite;animation-fill-mode:forwards;animation-duration:0.60241s" ><g transform="translate(-128,-128)" style="transform:matrix(1, 0, 0, 1, -128, -128);animation-play-state:paused" ><path fill="none" stroke="#E15C64" stroke-width="3" stroke-miterlimit="10" d="M226.386,155.442
	c7.908-4.371,13.94-2.558,13.472,4.049s-7.258,15.506-15.166,19.877c-7.908,4.371-13.94,2.558-13.472-4.049
	C211.688,168.711,218.478,159.812,226.386,155.442z" data-stroke="c1" style="stroke:rgb(149, 37, 27);animation-play-state:paused" ></path></g></g>
<g data-idx="3" data-dup="" dx="128" dy="-128" style="transform-origin:353.539px 39.405px;transform:matrix(0.91, 0, 0, 0.91, 0, 0);animation-timing-function:linear;animation-play-state:paused;animation-name:breath-a66d0abb-0845-4dc3-95d2-d841a6a81d7d;animation-iteration-count:infinite;animation-fill-mode:forwards;animation-duration:0.60241s" ><g transform="translate(128,-128)" style="transform:matrix(1, 0, 0, 1, 128, -128);animation-play-state:paused" ><path fill="none" stroke="#E15C64" stroke-width="3" stroke-miterlimit="10" d="M226.386,155.442
	c7.908-4.371,13.94-2.558,13.472,4.049s-7.258,15.506-15.166,19.877c-7.908,4.371-13.94,2.558-13.472-4.049
	C211.688,168.711,218.478,159.812,226.386,155.442z" data-stroke="c1" style="stroke:rgb(149, 37, 27);animation-play-state:paused" ></path></g></g>
<g data-idx="4" data-dup="" dx="-128" dy="-128" style="transform-origin:47.8435px -46.5266px;transform:matrix(0.91, 0, 0, 0.91, 0, 0);animation-timing-function:linear;animation-play-state:paused;animation-name:breath-a66d0abb-0845-4dc3-95d2-d841a6a81d7d;animation-iteration-count:infinite;animation-fill-mode:forwards;animation-duration:0.60241s" ><g transform="translate(-128,-128)" style="transform:matrix(1, 0, 0, 1, -128, -128);animation-play-state:paused" ><path fill="none" stroke="#E15C64" stroke-width="3" stroke-miterlimit="10" d="M173.869,70.042
	c7.074,3.372,13.692,11.223,14.783,17.537c1.09,6.313-3.76,8.698-10.834,5.326c-7.074-3.372-13.692-11.223-14.783-17.537
	C161.945,69.054,166.795,66.67,173.869,70.042z" data-stroke="c1" style="stroke:rgb(149, 37, 27);animation-play-state:paused" ></path></g></g>
<g data-idx="4" data-dup="" dx="128" dy="-128" style="transform-origin:303.843px -46.5266px;transform:matrix(0.91, 0, 0, 0.91, 0, 0);animation-timing-function:linear;animation-play-state:paused;animation-name:breath-a66d0abb-0845-4dc3-95d2-d841a6a81d7d;animation-iteration-count:infinite;animation-fill-mode:forwards;animation-duration:0.60241s" ><g transform="translate(128,-128)" style="transform:matrix(1, 0, 0, 1, 128, -128);animation-play-state:paused" ><path fill="none" stroke="#E15C64" stroke-width="3" stroke-miterlimit="10" d="M173.869,70.042
	c7.074,3.372,13.692,11.223,14.783,17.537c1.09,6.313-3.76,8.698-10.834,5.326c-7.074-3.372-13.692-11.223-14.783-17.537
	C161.945,69.054,166.795,66.67,173.869,70.042z" data-stroke="c1" style="stroke:rgb(149, 37, 27);animation-play-state:paused" ></path></g></g>
<g data-idx="5" data-dup="" dx="-128" dy="-128" style="transform-origin:-105.899px 106.191px;transform:matrix(0.91, 0, 0, 0.91, 0, 0);animation-timing-function:linear;animation-play-state:paused;animation-name:breath-a66d0abb-0845-4dc3-95d2-d841a6a81d7d;animation-iteration-count:infinite;animation-fill-mode:forwards;animation-duration:0.60241s" ><g transform="translate(-128,-128)" style="transform:matrix(1, 0, 0, 1, -128, -128);animation-play-state:paused" ><path fill="none" stroke="#E15C64" stroke-width="3" stroke-miterlimit="10" d="M27.134,241.219
	c-6.937,6.386-14.813,8.416-17.593,4.534s0.59-12.205,7.527-18.59s14.813-8.416,17.593-4.534S34.07,234.834,27.134,241.219z" data-stroke="c1" style="stroke:rgb(149, 37, 27);animation-play-state:paused" ></path></g></g>
<g data-idx="5" data-dup="" dx="128" dy="-128" style="transform-origin:150.101px 106.191px;transform:matrix(0.91, 0, 0, 0.91, 0, 0);animation-timing-function:linear;animation-play-state:paused;animation-name:breath-a66d0abb-0845-4dc3-95d2-d841a6a81d7d;animation-iteration-count:infinite;animation-fill-mode:forwards;animation-duration:0.60241s" ><g transform="translate(128,-128)" style="transform:matrix(1, 0, 0, 1, 128, -128);animation-play-state:paused" ><path fill="none" stroke="#E15C64" stroke-width="3" stroke-miterlimit="10" d="M27.134,241.219
	c-6.937,6.386-14.813,8.416-17.593,4.534s0.59-12.205,7.527-18.59s14.813-8.416,17.593-4.534S34.07,234.834,27.134,241.219z" data-stroke="c1" style="stroke:rgb(149, 37, 27);animation-play-state:paused" ></path></g></g>
<g data-idx="6" data-dup="" dx="-128" dy="-128" style="transform-origin:47.844px 92.8255px;transform:matrix(0.91, 0, 0, 0.91, 0, 0);animation-timing-function:linear;animation-play-state:paused;animation-name:breath-a66d0abb-0845-4dc3-95d2-d841a6a81d7d;animation-iteration-count:infinite;animation-fill-mode:forwards;animation-duration:0.60241s" ><g transform="translate(-128,-128)" style="transform:matrix(1, 0, 0, 1, -128, -128);animation-play-state:paused" ><path fill="none" stroke="#E15C64" stroke-width="3" stroke-miterlimit="10" d="M180.385,220.392
	c2.18,3.314,1.915,6.196-0.593,6.435c-2.508,0.239-6.308-2.253-8.489-5.568c-2.18-3.314-1.915-6.196,0.593-6.435
	C174.404,214.585,178.204,217.078,180.385,220.392z" data-stroke="c1" style="stroke:rgb(149, 37, 27);animation-play-state:paused" ></path></g></g>
<g data-idx="6" data-dup="" dx="128" dy="-128" style="transform-origin:303.844px 92.8255px;transform:matrix(0.91, 0, 0, 0.91, 0, 0);animation-timing-function:linear;animation-play-state:paused;animation-name:breath-a66d0abb-0845-4dc3-95d2-d841a6a81d7d;animation-iteration-count:infinite;animation-fill-mode:forwards;animation-duration:0.60241s" ><g transform="translate(128,-128)" style="transform:matrix(1, 0, 0, 1, 128, -128);animation-play-state:paused" ><path fill="none" stroke="#E15C64" stroke-width="3" stroke-miterlimit="10" d="M180.385,220.392
	c2.18,3.314,1.915,6.196-0.593,6.435c-2.508,0.239-6.308-2.253-8.489-5.568c-2.18-3.314-1.915-6.196,0.593-6.435
	C174.404,214.585,178.204,217.078,180.385,220.392z" data-stroke="c1" style="stroke:rgb(149, 37, 27);animation-play-state:paused" ></path></g></g>
<g data-idx="7" data-dup="" dx="-128" dy="-128" style="transform-origin:-75.206px -21.5925px;transform:matrix(0.91, 0, 0, 0.91, 0, 0);animation-timing-function:linear;animation-play-state:paused;animation-name:breath-a66d0abb-0845-4dc3-95d2-d841a6a81d7d;animation-iteration-count:infinite;animation-fill-mode:forwards;animation-duration:0.60241s" ><g transform="translate(-128,-128)" style="transform:matrix(1, 0, 0, 1, -128, -128);animation-play-state:paused" ><path fill="none" stroke="#E15C64" stroke-width="3" stroke-miterlimit="10" d="M69.892,95.033
	c0.77,7.092-6.26,17.934-15.703,24.216c-9.443,6.282-17.722,5.625-18.493-1.467c-0.77-7.092,6.26-17.934,15.703-24.216
	C60.842,87.284,69.121,87.941,69.892,95.033z" data-stroke="c1" style="stroke:rgb(149, 37, 27);animation-play-state:paused" ></path></g></g>
<g data-idx="7" data-dup="" dx="128" dy="-128" style="transform-origin:180.794px -21.5925px;transform:matrix(0.91, 0, 0, 0.91, 0, 0);animation-timing-function:linear;animation-play-state:paused;animation-name:breath-a66d0abb-0845-4dc3-95d2-d841a6a81d7d;animation-iteration-count:infinite;animation-fill-mode:forwards;animation-duration:0.60241s" ><g transform="translate(128,-128)" style="transform:matrix(1, 0, 0, 1, 128, -128);animation-play-state:paused" ><path fill="none" stroke="#E15C64" stroke-width="3" stroke-miterlimit="10" d="M69.892,95.033
	c0.77,7.092-6.26,17.934-15.703,24.216c-9.443,6.282-17.722,5.625-18.493-1.467c-0.77-7.092,6.26-17.934,15.703-24.216
	C60.842,87.284,69.121,87.941,69.892,95.033z" data-stroke="c1" style="stroke:rgb(149, 37, 27);animation-play-state:paused" ></path></g></g>
<g data-idx="8" data-dup="" dx="-128" dy="-128" style="transform-origin:108.073px -79.5595px;transform:matrix(0.91, 0, 0, 0.91, 0, 0);animation-timing-function:linear;animation-play-state:paused;animation-name:breath-a66d0abb-0845-4dc3-95d2-d841a6a81d7d;animation-iteration-count:infinite;animation-fill-mode:forwards;animation-duration:0.60241s" ><g transform="translate(-128,-128)" style="transform:matrix(1, 0, 0, 1, -128, -128);animation-play-state:paused" ><path fill="none" stroke="#E15C64" stroke-width="3" stroke-miterlimit="10" d="M240.614,48.007c2.18,3.314,1.915,6.196-0.593,6.435
	c-2.508,0.239-6.308-2.253-8.489-5.568c-2.18-3.314-1.915-6.196,0.593-6.435C234.633,42.2,238.434,44.693,240.614,48.007z" data-stroke="c1" style="stroke:rgb(149, 37, 27);animation-play-state:paused" ></path></g></g>
<g data-idx="8" data-dup="" dx="128" dy="-128" style="transform-origin:364.073px -79.5595px;transform:matrix(0.91, 0, 0, 0.91, 0, 0);animation-timing-function:linear;animation-play-state:paused;animation-name:breath-a66d0abb-0845-4dc3-95d2-d841a6a81d7d;animation-iteration-count:infinite;animation-fill-mode:forwards;animation-duration:0.60241s" ><g transform="translate(128,-128)" style="transform:matrix(1, 0, 0, 1, 128, -128);animation-play-state:paused" ><path fill="none" stroke="#E15C64" stroke-width="3" stroke-miterlimit="10" d="M240.614,48.007c2.18,3.314,1.915,6.196-0.593,6.435
	c-2.508,0.239-6.308-2.253-8.489-5.568c-2.18-3.314-1.915-6.196,0.593-6.435C234.633,42.2,238.434,44.693,240.614,48.007z" data-stroke="c1" style="stroke:rgb(149, 37, 27);animation-play-state:paused" ></path></g></g>
<g data-idx="9" data-dup="" dx="-128" dy="-128" style="transform-origin:-25.8059px -107.458px;transform:matrix(0.91, 0, 0, 0.91, 0, 0);animation-timing-function:linear;animation-play-state:paused;animation-name:breath-a66d0abb-0845-4dc3-95d2-d841a6a81d7d;animation-iteration-count:infinite;animation-fill-mode:forwards;animation-duration:0.60241s" ><g transform="translate(-128,-128)" style="transform:matrix(1, 0, 0, 1, -128, -128);animation-play-state:paused" ><ellipse transform="matrix(0.7605 -0.6494 0.6494 0.7605 11.1373 71.2809)" fill="none" stroke="#E15C64" stroke-width="3" stroke-miterlimit="10" cx="102.19" cy="20.544" rx="9.55" ry="9.55" data-stroke="c1" style="transform:matrix(0.7605, -0.6494, 0.6494, 0.7605, 11.1373, 71.2809);stroke:rgb(149, 37, 27);animation-play-state:paused" ></ellipse></g></g>
<g data-idx="9" data-dup="" dx="128" dy="-128" style="transform-origin:230.194px -107.458px;transform:matrix(0.91, 0, 0, 0.91, 0, 0);animation-timing-function:linear;animation-play-state:paused;animation-name:breath-a66d0abb-0845-4dc3-95d2-d841a6a81d7d;animation-iteration-count:infinite;animation-fill-mode:forwards;animation-duration:0.60241s" ><g transform="translate(128,-128)" style="transform:matrix(1, 0, 0, 1, 128, -128);animation-play-state:paused" ><ellipse transform="matrix(0.7605 -0.6494 0.6494 0.7605 11.1373 71.2809)" fill="none" stroke="#E15C64" stroke-width="3" stroke-miterlimit="10" cx="102.19" cy="20.544" rx="9.55" ry="9.55" data-stroke="c1" style="transform:matrix(0.7605, -0.6494, 0.6494, 0.7605, 11.1373, 71.2809);stroke:rgb(149, 37, 27);animation-play-state:paused" ></ellipse></g></g>
<g data-idx="10" data-dup="" dx="-128" dy="-128" style="transform-origin:17.8957px 21.2621px;transform:matrix(0.91, 0, 0, 0.91, 0, 0);animation-timing-function:linear;animation-play-state:paused;animation-name:breath-a66d0abb-0845-4dc3-95d2-d841a6a81d7d;animation-iteration-count:infinite;animation-fill-mode:forwards;animation-duration:0.60241s" ><g transform="translate(-128,-128)" style="transform:matrix(1, 0, 0, 1, -128, -128);animation-play-state:paused" ><ellipse transform="matrix(0.3816 -0.9243 0.9243 0.3816 -47.7389 227.1606)" fill="none" stroke="#E15C64" stroke-width="3" stroke-miterlimit="10" cx="145.9" cy="149.258" rx="7.611" ry="7.611" data-stroke="c1" style="transform:matrix(0.3816, -0.9243, 0.9243, 0.3816, -47.7389, 227.161);stroke:rgb(149, 37, 27);animation-play-state:paused" ></ellipse></g></g>
<g data-idx="10" data-dup="" dx="128" dy="-128" style="transform-origin:273.896px 21.2621px;transform:matrix(0.91, 0, 0, 0.91, 0, 0);animation-timing-function:linear;animation-play-state:paused;animation-name:breath-a66d0abb-0845-4dc3-95d2-d841a6a81d7d;animation-iteration-count:infinite;animation-fill-mode:forwards;animation-duration:0.60241s" ><g transform="translate(128,-128)" style="transform:matrix(1, 0, 0, 1, 128, -128);animation-play-state:paused" ><ellipse transform="matrix(0.3816 -0.9243 0.9243 0.3816 -47.7389 227.1606)" fill="none" stroke="#E15C64" stroke-width="3" stroke-miterlimit="10" cx="145.9" cy="149.258" rx="7.611" ry="7.611" data-stroke="c1" style="transform:matrix(0.3816, -0.9243, 0.9243, 0.3816, -47.7389, 227.161);stroke:rgb(149, 37, 27);animation-play-state:paused" ></ellipse></g></g>
<g data-idx="11" data-dup="" dx="-128" dy="-128" style="transform-origin:108.073px 44.0725px;transform:matrix(0.91, 0, 0, 0.91, 0, 0);animation-timing-function:linear;animation-play-state:paused;animation-name:breath-a66d0abb-0845-4dc3-95d2-d841a6a81d7d;animation-iteration-count:infinite;animation-fill-mode:forwards;animation-duration:0.60241s" ><g transform="translate(-128,-128)" style="transform:matrix(1, 0, 0, 1, -128, -128);animation-play-state:paused" ><path fill="none" stroke="#E15C64" stroke-width="3" stroke-miterlimit="10" d="M240.614,171.639
	c2.18,3.314,1.915,6.196-0.593,6.435c-2.508,0.239-6.308-2.253-8.489-5.568s-1.915-6.196,0.593-6.435
	C234.633,165.832,238.434,168.325,240.614,171.639z" data-stroke="c1" style="stroke:rgb(149, 37, 27);animation-play-state:paused" ></path></g></g>
<g data-idx="11" data-dup="" dx="128" dy="-128" style="transform-origin:364.073px 44.0725px;transform:matrix(0.91, 0, 0, 0.91, 0, 0);animation-timing-function:linear;animation-play-state:paused;animation-name:breath-a66d0abb-0845-4dc3-95d2-d841a6a81d7d;animation-iteration-count:infinite;animation-fill-mode:forwards;animation-duration:0.60241s" ><g transform="translate(128,-128)" style="transform:matrix(1, 0, 0, 1, 128, -128);animation-play-state:paused" ><path fill="none" stroke="#E15C64" stroke-width="3" stroke-miterlimit="10" d="M240.614,171.639
	c2.18,3.314,1.915,6.196-0.593,6.435c-2.508,0.239-6.308-2.253-8.489-5.568s-1.915-6.196,0.593-6.435
	C234.633,165.832,238.434,168.325,240.614,171.639z" data-stroke="c1" style="stroke:rgb(149, 37, 27);animation-play-state:paused" ></path></g></g>
<g data-idx="0" data-dup="" dx="-128" dy="128" style="transform-origin:-47.6574px 249.703px;transform:matrix(0.91, 0, 0, 0.91, 0, 0);animation-timing-function:linear;animation-play-state:paused;animation-name:breath-a66d0abb-0845-4dc3-95d2-d841a6a81d7d;animation-iteration-count:infinite;animation-fill-mode:forwards;animation-duration:0.60241s" ><g transform="translate(-128,128)" style="transform:matrix(1, 0, 0, 1, -128, 128);animation-play-state:paused" ><ellipse transform="matrix(0.6207 -0.784 0.784 0.6207 -64.9453 109.154)" fill="none" stroke="#E15C64" stroke-width="3" stroke-miterlimit="10" cx="80.348" cy="121.704" rx="27.553" ry="27.553" data-stroke="c1" style="transform:matrix(0.6207, -0.784, 0.784, 0.6207, -64.9453, 109.154);stroke:rgb(149, 37, 27);animation-play-state:paused" ></ellipse></g></g>
<g data-idx="0" data-dup="" dx="128" dy="128" style="transform-origin:208.343px 249.703px;transform:matrix(0.91, 0, 0, 0.91, 0, 0);animation-timing-function:linear;animation-play-state:paused;animation-name:breath-a66d0abb-0845-4dc3-95d2-d841a6a81d7d;animation-iteration-count:infinite;animation-fill-mode:forwards;animation-duration:0.60241s" ><g transform="translate(128,128)" style="transform:matrix(1, 0, 0, 1, 128, 128);animation-play-state:paused" ><ellipse transform="matrix(0.6207 -0.784 0.784 0.6207 -64.9453 109.154)" fill="none" stroke="#E15C64" stroke-width="3" stroke-miterlimit="10" cx="80.348" cy="121.704" rx="27.553" ry="27.553" data-stroke="c1" style="transform:matrix(0.6207, -0.784, 0.784, 0.6207, -64.9453, 109.154);stroke:rgb(149, 37, 27);animation-play-state:paused" ></ellipse></g></g>
<g data-idx="1" data-dup="" dx="-128" dy="128" style="transform-origin:-42.179px 320px;transform:matrix(0.91, 0, 0, 0.91, 0, 0);animation-timing-function:linear;animation-play-state:paused;animation-name:breath-a66d0abb-0845-4dc3-95d2-d841a6a81d7d;animation-iteration-count:infinite;animation-fill-mode:forwards;animation-duration:0.60241s" ><g transform="translate(-128,128)" style="transform:matrix(1, 0, 0, 1, -128, 128);animation-play-state:paused" ><path fill="none" stroke="#E15C64" stroke-width="3" stroke-miterlimit="10" d="M97.65,198.191
	c0.626,5.602-4.163,7.371-10.696,3.952c-6.533-3.419-12.336-10.732-12.962-16.334c-0.626-5.602,4.163-7.371,10.696-3.952
	C91.221,185.276,97.024,192.589,97.65,198.191z" data-stroke="c1" style="stroke:rgb(149, 37, 27);animation-play-state:paused" ></path></g></g>
<g data-idx="1" data-dup="" dx="128" dy="128" style="transform-origin:213.821px 320px;transform:matrix(0.91, 0, 0, 0.91, 0, 0);animation-timing-function:linear;animation-play-state:paused;animation-name:breath-a66d0abb-0845-4dc3-95d2-d841a6a81d7d;animation-iteration-count:infinite;animation-fill-mode:forwards;animation-duration:0.60241s" ><g transform="translate(128,128)" style="transform:matrix(1, 0, 0, 1, 128, 128);animation-play-state:paused" ><path fill="none" stroke="#E15C64" stroke-width="3" stroke-miterlimit="10" d="M97.65,198.191
	c0.626,5.602-4.163,7.371-10.696,3.952c-6.533-3.419-12.336-10.732-12.962-16.334c-0.626-5.602,4.163-7.371,10.696-3.952
	C91.221,185.276,97.024,192.589,97.65,198.191z" data-stroke="c1" style="stroke:rgb(149, 37, 27);animation-play-state:paused" ></path></g></g>
<g data-idx="2" data-dup="" dx="-128" dy="128" style="transform-origin:-15.7705px 154.097px;transform:matrix(0.91, 0, 0, 0.91, 0, 0);animation-timing-function:linear;animation-play-state:paused;animation-name:breath-a66d0abb-0845-4dc3-95d2-d841a6a81d7d;animation-iteration-count:infinite;animation-fill-mode:forwards;animation-duration:0.60241s" ><g transform="translate(-128,128)" style="transform:matrix(1, 0, 0, 1, -128, 128);animation-play-state:paused" ><path fill="none" stroke="#E15C64" stroke-width="3" stroke-miterlimit="10" d="M106.344,40.752
	c-7.68,2.008-11.27-2.927-8.02-11.021s12.111-16.283,19.791-18.29s11.27,2.927,8.02,11.021S114.024,38.745,106.344,40.752z" data-stroke="c1" style="stroke:rgb(149, 37, 27);animation-play-state:paused" ></path></g></g>
<g data-idx="2" data-dup="" dx="128" dy="128" style="transform-origin:240.23px 154.097px;transform:matrix(0.91, 0, 0, 0.91, 0, 0);animation-timing-function:linear;animation-play-state:paused;animation-name:breath-a66d0abb-0845-4dc3-95d2-d841a6a81d7d;animation-iteration-count:infinite;animation-fill-mode:forwards;animation-duration:0.60241s" ><g transform="translate(128,128)" style="transform:matrix(1, 0, 0, 1, 128, 128);animation-play-state:paused" ><path fill="none" stroke="#E15C64" stroke-width="3" stroke-miterlimit="10" d="M106.344,40.752
	c-7.68,2.008-11.27-2.927-8.02-11.021s12.111-16.283,19.791-18.29s11.27,2.927,8.02,11.021S114.024,38.745,106.344,40.752z" data-stroke="c1" style="stroke:rgb(149, 37, 27);animation-play-state:paused" ></path></g></g>
<g data-idx="3" data-dup="" dx="-128" dy="128" style="transform-origin:97.539px 295.405px;transform:matrix(0.91, 0, 0, 0.91, 0, 0);animation-timing-function:linear;animation-play-state:paused;animation-name:breath-a66d0abb-0845-4dc3-95d2-d841a6a81d7d;animation-iteration-count:infinite;animation-fill-mode:forwards;animation-duration:0.60241s" ><g transform="translate(-128,128)" style="transform:matrix(1, 0, 0, 1, -128, 128);animation-play-state:paused" ><path fill="none" stroke="#E15C64" stroke-width="3" stroke-miterlimit="10" d="M226.386,155.442
	c7.908-4.371,13.94-2.558,13.472,4.049s-7.258,15.506-15.166,19.877c-7.908,4.371-13.94,2.558-13.472-4.049
	C211.688,168.711,218.478,159.812,226.386,155.442z" data-stroke="c1" style="stroke:rgb(149, 37, 27);animation-play-state:paused" ></path></g></g>
<g data-idx="3" data-dup="" dx="128" dy="128" style="transform-origin:353.539px 295.405px;transform:matrix(0.91, 0, 0, 0.91, 0, 0);animation-timing-function:linear;animation-play-state:paused;animation-name:breath-a66d0abb-0845-4dc3-95d2-d841a6a81d7d;animation-iteration-count:infinite;animation-fill-mode:forwards;animation-duration:0.60241s" ><g transform="translate(128,128)" style="transform:matrix(1, 0, 0, 1, 128, 128);animation-play-state:paused" ><path fill="none" stroke="#E15C64" stroke-width="3" stroke-miterlimit="10" d="M226.386,155.442
	c7.908-4.371,13.94-2.558,13.472,4.049s-7.258,15.506-15.166,19.877c-7.908,4.371-13.94,2.558-13.472-4.049
	C211.688,168.711,218.478,159.812,226.386,155.442z" data-stroke="c1" style="stroke:rgb(149, 37, 27);animation-play-state:paused" ></path></g></g>
<g data-idx="4" data-dup="" dx="-128" dy="128" style="transform-origin:47.8435px 209.473px;transform:matrix(0.91, 0, 0, 0.91, 0, 0);animation-timing-function:linear;animation-play-state:paused;animation-name:breath-a66d0abb-0845-4dc3-95d2-d841a6a81d7d;animation-iteration-count:infinite;animation-fill-mode:forwards;animation-duration:0.60241s" ><g transform="translate(-128,128)" style="transform:matrix(1, 0, 0, 1, -128, 128);animation-play-state:paused" ><path fill="none" stroke="#E15C64" stroke-width="3" stroke-miterlimit="10" d="M173.869,70.042
	c7.074,3.372,13.692,11.223,14.783,17.537c1.09,6.313-3.76,8.698-10.834,5.326c-7.074-3.372-13.692-11.223-14.783-17.537
	C161.945,69.054,166.795,66.67,173.869,70.042z" data-stroke="c1" style="stroke:rgb(149, 37, 27);animation-play-state:paused" ></path></g></g>
<g data-idx="4" data-dup="" dx="128" dy="128" style="transform-origin:303.843px 209.473px;transform:matrix(0.91, 0, 0, 0.91, 0, 0);animation-timing-function:linear;animation-play-state:paused;animation-name:breath-a66d0abb-0845-4dc3-95d2-d841a6a81d7d;animation-iteration-count:infinite;animation-fill-mode:forwards;animation-duration:0.60241s" ><g transform="translate(128,128)" style="transform:matrix(1, 0, 0, 1, 128, 128);animation-play-state:paused" ><path fill="none" stroke="#E15C64" stroke-width="3" stroke-miterlimit="10" d="M173.869,70.042
	c7.074,3.372,13.692,11.223,14.783,17.537c1.09,6.313-3.76,8.698-10.834,5.326c-7.074-3.372-13.692-11.223-14.783-17.537
	C161.945,69.054,166.795,66.67,173.869,70.042z" data-stroke="c1" style="stroke:rgb(149, 37, 27);animation-play-state:paused" ></path></g></g>
<g data-idx="5" data-dup="" dx="-128" dy="128" style="transform-origin:-105.899px 362.191px;transform:matrix(0.91, 0, 0, 0.91, 0, 0);animation-timing-function:linear;animation-play-state:paused;animation-name:breath-a66d0abb-0845-4dc3-95d2-d841a6a81d7d;animation-iteration-count:infinite;animation-fill-mode:forwards;animation-duration:0.60241s" ><g transform="translate(-128,128)" style="transform:matrix(1, 0, 0, 1, -128, 128);animation-play-state:paused" ><path fill="none" stroke="#E15C64" stroke-width="3" stroke-miterlimit="10" d="M27.134,241.219
	c-6.937,6.386-14.813,8.416-17.593,4.534s0.59-12.205,7.527-18.59s14.813-8.416,17.593-4.534S34.07,234.834,27.134,241.219z" data-stroke="c1" style="stroke:rgb(149, 37, 27);animation-play-state:paused" ></path></g></g>
<g data-idx="5" data-dup="" dx="128" dy="128" style="transform-origin:150.101px 362.191px;transform:matrix(0.91, 0, 0, 0.91, 0, 0);animation-timing-function:linear;animation-play-state:paused;animation-name:breath-a66d0abb-0845-4dc3-95d2-d841a6a81d7d;animation-iteration-count:infinite;animation-fill-mode:forwards;animation-duration:0.60241s" ><g transform="translate(128,128)" style="transform:matrix(1, 0, 0, 1, 128, 128);animation-play-state:paused" ><path fill="none" stroke="#E15C64" stroke-width="3" stroke-miterlimit="10" d="M27.134,241.219
	c-6.937,6.386-14.813,8.416-17.593,4.534s0.59-12.205,7.527-18.59s14.813-8.416,17.593-4.534S34.07,234.834,27.134,241.219z" data-stroke="c1" style="stroke:rgb(149, 37, 27);animation-play-state:paused" ></path></g></g>
<g data-idx="6" data-dup="" dx="-128" dy="128" style="transform-origin:47.844px 348.826px;transform:matrix(0.91, 0, 0, 0.91, 0, 0);animation-timing-function:linear;animation-play-state:paused;animation-name:breath-a66d0abb-0845-4dc3-95d2-d841a6a81d7d;animation-iteration-count:infinite;animation-fill-mode:forwards;animation-duration:0.60241s" ><g transform="translate(-128,128)" style="transform:matrix(1, 0, 0, 1, -128, 128);animation-play-state:paused" ><path fill="none" stroke="#E15C64" stroke-width="3" stroke-miterlimit="10" d="M180.385,220.392
	c2.18,3.314,1.915,6.196-0.593,6.435c-2.508,0.239-6.308-2.253-8.489-5.568c-2.18-3.314-1.915-6.196,0.593-6.435
	C174.404,214.585,178.204,217.078,180.385,220.392z" data-stroke="c1" style="stroke:rgb(149, 37, 27);animation-play-state:paused" ></path></g></g>
<g data-idx="6" data-dup="" dx="128" dy="128" style="transform-origin:303.844px 348.826px;transform:matrix(0.91, 0, 0, 0.91, 0, 0);animation-timing-function:linear;animation-play-state:paused;animation-name:breath-a66d0abb-0845-4dc3-95d2-d841a6a81d7d;animation-iteration-count:infinite;animation-fill-mode:forwards;animation-duration:0.60241s" ><g transform="translate(128,128)" style="transform:matrix(1, 0, 0, 1, 128, 128);animation-play-state:paused" ><path fill="none" stroke="#E15C64" stroke-width="3" stroke-miterlimit="10" d="M180.385,220.392
	c2.18,3.314,1.915,6.196-0.593,6.435c-2.508,0.239-6.308-2.253-8.489-5.568c-2.18-3.314-1.915-6.196,0.593-6.435
	C174.404,214.585,178.204,217.078,180.385,220.392z" data-stroke="c1" style="stroke:rgb(149, 37, 27);animation-play-state:paused" ></path></g></g>
<g data-idx="7" data-dup="" dx="-128" dy="128" style="transform-origin:-75.206px 234.407px;transform:matrix(0.91, 0, 0, 0.91, 0, 0);animation-timing-function:linear;animation-play-state:paused;animation-name:breath-a66d0abb-0845-4dc3-95d2-d841a6a81d7d;animation-iteration-count:infinite;animation-fill-mode:forwards;animation-duration:0.60241s" ><g transform="translate(-128,128)" style="transform:matrix(1, 0, 0, 1, -128, 128);animation-play-state:paused" ><path fill="none" stroke="#E15C64" stroke-width="3" stroke-miterlimit="10" d="M69.892,95.033
	c0.77,7.092-6.26,17.934-15.703,24.216c-9.443,6.282-17.722,5.625-18.493-1.467c-0.77-7.092,6.26-17.934,15.703-24.216
	C60.842,87.284,69.121,87.941,69.892,95.033z" data-stroke="c1" style="stroke:rgb(149, 37, 27);animation-play-state:paused" ></path></g></g>
<g data-idx="7" data-dup="" dx="128" dy="128" style="transform-origin:180.794px 234.407px;transform:matrix(0.91, 0, 0, 0.91, 0, 0);animation-timing-function:linear;animation-play-state:paused;animation-name:breath-a66d0abb-0845-4dc3-95d2-d841a6a81d7d;animation-iteration-count:infinite;animation-fill-mode:forwards;animation-duration:0.60241s" ><g transform="translate(128,128)" style="transform:matrix(1, 0, 0, 1, 128, 128);animation-play-state:paused" ><path fill="none" stroke="#E15C64" stroke-width="3" stroke-miterlimit="10" d="M69.892,95.033
	c0.77,7.092-6.26,17.934-15.703,24.216c-9.443,6.282-17.722,5.625-18.493-1.467c-0.77-7.092,6.26-17.934,15.703-24.216
	C60.842,87.284,69.121,87.941,69.892,95.033z" data-stroke="c1" style="stroke:rgb(149, 37, 27);animation-play-state:paused" ></path></g></g>
<g data-idx="8" data-dup="" dx="-128" dy="128" style="transform-origin:108.073px 176.441px;transform:matrix(0.91, 0, 0, 0.91, 0, 0);animation-timing-function:linear;animation-play-state:paused;animation-name:breath-a66d0abb-0845-4dc3-95d2-d841a6a81d7d;animation-iteration-count:infinite;animation-fill-mode:forwards;animation-duration:0.60241s" ><g transform="translate(-128,128)" style="transform:matrix(1, 0, 0, 1, -128, 128);animation-play-state:paused" ><path fill="none" stroke="#E15C64" stroke-width="3" stroke-miterlimit="10" d="M240.614,48.007c2.18,3.314,1.915,6.196-0.593,6.435
	c-2.508,0.239-6.308-2.253-8.489-5.568c-2.18-3.314-1.915-6.196,0.593-6.435C234.633,42.2,238.434,44.693,240.614,48.007z" data-stroke="c1" style="stroke:rgb(149, 37, 27);animation-play-state:paused" ></path></g></g>
<g data-idx="8" data-dup="" dx="128" dy="128" style="transform-origin:364.073px 176.441px;transform:matrix(0.91, 0, 0, 0.91, 0, 0);animation-timing-function:linear;animation-play-state:paused;animation-name:breath-a66d0abb-0845-4dc3-95d2-d841a6a81d7d;animation-iteration-count:infinite;animation-fill-mode:forwards;animation-duration:0.60241s" ><g transform="translate(128,128)" style="transform:matrix(1, 0, 0, 1, 128, 128);animation-play-state:paused" ><path fill="none" stroke="#E15C64" stroke-width="3" stroke-miterlimit="10" d="M240.614,48.007c2.18,3.314,1.915,6.196-0.593,6.435
	c-2.508,0.239-6.308-2.253-8.489-5.568c-2.18-3.314-1.915-6.196,0.593-6.435C234.633,42.2,238.434,44.693,240.614,48.007z" data-stroke="c1" style="stroke:rgb(149, 37, 27);animation-play-state:paused" ></path></g></g>
<g data-idx="9" data-dup="" dx="-128" dy="128" style="transform-origin:-25.8059px 148.542px;transform:matrix(0.91, 0, 0, 0.91, 0, 0);animation-timing-function:linear;animation-play-state:paused;animation-name:breath-a66d0abb-0845-4dc3-95d2-d841a6a81d7d;animation-iteration-count:infinite;animation-fill-mode:forwards;animation-duration:0.60241s" ><g transform="translate(-128,128)" style="transform:matrix(1, 0, 0, 1, -128, 128);animation-play-state:paused" ><ellipse transform="matrix(0.7605 -0.6494 0.6494 0.7605 11.1373 71.2809)" fill="none" stroke="#E15C64" stroke-width="3" stroke-miterlimit="10" cx="102.19" cy="20.544" rx="9.55" ry="9.55" data-stroke="c1" style="transform:matrix(0.7605, -0.6494, 0.6494, 0.7605, 11.1373, 71.2809);stroke:rgb(149, 37, 27);animation-play-state:paused" ></ellipse></g></g>
<g data-idx="9" data-dup="" dx="128" dy="128" style="transform-origin:230.194px 148.542px;transform:matrix(0.91, 0, 0, 0.91, 0, 0);animation-timing-function:linear;animation-play-state:paused;animation-name:breath-a66d0abb-0845-4dc3-95d2-d841a6a81d7d;animation-iteration-count:infinite;animation-fill-mode:forwards;animation-duration:0.60241s" ><g transform="translate(128,128)" style="transform:matrix(1, 0, 0, 1, 128, 128);animation-play-state:paused" ><ellipse transform="matrix(0.7605 -0.6494 0.6494 0.7605 11.1373 71.2809)" fill="none" stroke="#E15C64" stroke-width="3" stroke-miterlimit="10" cx="102.19" cy="20.544" rx="9.55" ry="9.55" data-stroke="c1" style="transform:matrix(0.7605, -0.6494, 0.6494, 0.7605, 11.1373, 71.2809);stroke:rgb(149, 37, 27);animation-play-state:paused" ></ellipse></g></g>
<g data-idx="10" data-dup="" dx="-128" dy="128" style="transform-origin:17.8957px 277.262px;transform:matrix(0.91, 0, 0, 0.91, 0, 0);animation-timing-function:linear;animation-play-state:paused;animation-name:breath-a66d0abb-0845-4dc3-95d2-d841a6a81d7d;animation-iteration-count:infinite;animation-fill-mode:forwards;animation-duration:0.60241s" ><g transform="translate(-128,128)" style="transform:matrix(1, 0, 0, 1, -128, 128);animation-play-state:paused" ><ellipse transform="matrix(0.3816 -0.9243 0.9243 0.3816 -47.7389 227.1606)" fill="none" stroke="#E15C64" stroke-width="3" stroke-miterlimit="10" cx="145.9" cy="149.258" rx="7.611" ry="7.611" data-stroke="c1" style="transform:matrix(0.3816, -0.9243, 0.9243, 0.3816, -47.7389, 227.161);stroke:rgb(149, 37, 27);animation-play-state:paused" ></ellipse></g></g>
<g data-idx="10" data-dup="" dx="128" dy="128" style="transform-origin:273.896px 277.262px;transform:matrix(0.91, 0, 0, 0.91, 0, 0);animation-timing-function:linear;animation-play-state:paused;animation-name:breath-a66d0abb-0845-4dc3-95d2-d841a6a81d7d;animation-iteration-count:infinite;animation-fill-mode:forwards;animation-duration:0.60241s" ><g transform="translate(128,128)" style="transform:matrix(1, 0, 0, 1, 128, 128);animation-play-state:paused" ><ellipse transform="matrix(0.3816 -0.9243 0.9243 0.3816 -47.7389 227.1606)" fill="none" stroke="#E15C64" stroke-width="3" stroke-miterlimit="10" cx="145.9" cy="149.258" rx="7.611" ry="7.611" data-stroke="c1" style="transform:matrix(0.3816, -0.9243, 0.9243, 0.3816, -47.7389, 227.161);stroke:rgb(149, 37, 27);animation-play-state:paused" ></ellipse></g></g>
<g data-idx="11" data-dup="" dx="-128" dy="128" style="transform-origin:108.073px 300.073px;transform:matrix(0.91, 0, 0, 0.91, 0, 0);animation-timing-function:linear;animation-play-state:paused;animation-name:breath-a66d0abb-0845-4dc3-95d2-d841a6a81d7d;animation-iteration-count:infinite;animation-fill-mode:forwards;animation-duration:0.60241s" ><g transform="translate(-128,128)" style="transform:matrix(1, 0, 0, 1, -128, 128);animation-play-state:paused" ><path fill="none" stroke="#E15C64" stroke-width="3" stroke-miterlimit="10" d="M240.614,171.639
	c2.18,3.314,1.915,6.196-0.593,6.435c-2.508,0.239-6.308-2.253-8.489-5.568s-1.915-6.196,0.593-6.435
	C234.633,165.832,238.434,168.325,240.614,171.639z" data-stroke="c1" style="stroke:rgb(149, 37, 27);animation-play-state:paused" ></path></g></g>
<g data-idx="11" data-dup="" dx="128" dy="128" style="transform-origin:364.073px 300.073px;transform:matrix(0.91, 0, 0, 0.91, 0, 0);animation-timing-function:linear;animation-play-state:paused;animation-name:breath-a66d0abb-0845-4dc3-95d2-d841a6a81d7d;animation-iteration-count:infinite;animation-fill-mode:forwards;animation-duration:0.60241s" ><g transform="translate(128,128)" style="transform:matrix(1, 0, 0, 1, 128, 128);animation-play-state:paused" ><path fill="none" stroke="#E15C64" stroke-width="3" stroke-miterlimit="10" d="M240.614,171.639
	c2.18,3.314,1.915,6.196-0.593,6.435c-2.508,0.239-6.308-2.253-8.489-5.568s-1.915-6.196,0.593-6.435
	C234.633,165.832,238.434,168.325,240.614,171.639z" data-stroke="c1" style="stroke:rgb(149, 37, 27);animation-play-state:paused" ></path></g></g></g>
<STYLE id="breath-a66d0abb-0845-4dc3-95d2-d841a6a81d7d" data-anikit="" style="animation-play-state:paused" >@keyframes breath-a66d0abb-0845-4dc3-95d2-d841a6a81d7d
{
  0% {
    animation-timing-function: cubic-bezier(0.9647,0.2413,-0.0705,0.7911);
    transform: scale(0.9099999999999999);
  }
  51% {
    animation-timing-function: cubic-bezier(0.9226,0.2631,-0.0308,0.7628);
    transform: scale(1.02994);
  }
  100% {
    transform: scale(0.9099999999999999);
  }
}</STYLE></svg>